<?xml version="1.0" encoding="UTF-8" standalone="no"?>
<!DOCTYPE svg PUBLIC "-//W3C//DTD SVG 1.1//EN"
 "http://www.w3.org/Graphics/SVG/1.1/DTD/svg11.dtd">
<!-- Generated by graphviz version 2.40.1 (20161225.0304)
 -->
<!-- Title: dependencies Pages: 1 -->
<svg width="753pt" height="211pt"
 viewBox="0.00 0.00 753.00 211.00" xmlns="http://www.w3.org/2000/svg" xmlns:xlink="http://www.w3.org/1999/xlink">
<g id="graph0" class="graph" transform="scale(1 1) rotate(0) translate(4 207)">
<title>dependencies</title>
<polygon fill="#ffffff" stroke="transparent" points="-4,4 -4,-207 749,-207 749,4 -4,4"/>
<text text-anchor="start" x="351.5091" y="-42.4" font-family="sans-serif" font-weight="bold" font-size="14.00" fill="#000000">Legend</text>
<polygon fill="#ffffb3" stroke="transparent" points="138.5,-10 138.5,-30 158.5,-30 158.5,-10 138.5,-10"/>
<text text-anchor="start" x="162.129" y="-15.4" font-family="sans-serif" font-size="14.00" fill="#000000"> &#160;Declarations</text>
<polygon fill="#8dd3c7" stroke="transparent" points="251.5,-10 251.5,-30 271.5,-30 271.5,-10 251.5,-10"/>
<text text-anchor="start" x="275.2251" y="-15.4" font-family="sans-serif" font-size="14.00" fill="#000000"> &#160;Module</text>
<polygon fill="#80b1d3" stroke="transparent" points="337.5,-10 337.5,-30 357.5,-30 357.5,-10 337.5,-10"/>
<text text-anchor="start" x="361.2812" y="-15.4" font-family="sans-serif" font-size="14.00" fill="#000000"> &#160;Bootstrap</text>
<polygon fill="#fdb462" stroke="transparent" points="434.5,-10 434.5,-30 454.5,-30 454.5,-10 434.5,-10"/>
<text text-anchor="start" x="458.1732" y="-15.4" font-family="sans-serif" font-size="14.00" fill="#000000"> &#160;Providers</text>
<polygon fill="#fb8072" stroke="transparent" points="530.5,-10 530.5,-30 550.5,-30 550.5,-10 530.5,-10"/>
<text text-anchor="start" x="554.2258" y="-15.4" font-family="sans-serif" font-size="14.00" fill="#000000"> &#160;Exports</text>
<g id="clust1" class="cluster">
<title>cluster_CoreModule</title>
<polygon fill="none" stroke="#000000" stroke-dasharray="1,5" points="8,-70 8,-195 737,-195 737,-70 8,-70"/>
</g>
<g id="clust6" class="cluster">
<title>cluster_CoreModule_providers</title>
<polygon fill="none" stroke="#000000" points="16,-78 16,-130 729,-130 729,-78 16,-78"/>
</g>
<!-- AnimationsService -->
<g id="node1" class="node">
<title>AnimationsService</title>
<ellipse fill="#fdb462" stroke="#000000" cx="636" cy="-104" rx="85.1082" ry="18"/>
<text text-anchor="middle" x="636" y="-99.8" font-family="Times,serif" font-size="14.00" fill="#000000">AnimationsService</text>
</g>
<!-- CoreModule -->
<g id="node5" class="node">
<title>CoreModule</title>
<polygon fill="#8dd3c7" stroke="#000000" points="386.2619,-187 383.2619,-191 362.2619,-191 359.2619,-187 299.7381,-187 299.7381,-151 386.2619,-151 386.2619,-187"/>
<text text-anchor="middle" x="343" y="-164.8" font-family="Times,serif" font-size="14.00" fill="#000000">CoreModule</text>
</g>
<!-- AnimationsService&#45;&gt;CoreModule -->
<g id="edge1" class="edge">
<title>AnimationsService&#45;&gt;CoreModule</title>
<path fill="none" stroke="#000000" d="M636,-122.1061C636,-141.3391 636,-169 636,-169 636,-169 396.5487,-169 396.5487,-169"/>
<polygon fill="#000000" stroke="#000000" points="396.5487,-165.5001 386.5487,-169 396.5486,-172.5001 396.5487,-165.5001"/>
</g>
<!-- LocalStorageService -->
<g id="node2" class="node">
<title>LocalStorageService</title>
<ellipse fill="#fdb462" stroke="#000000" cx="441" cy="-104" rx="91.4481" ry="18"/>
<text text-anchor="middle" x="441" y="-99.8" font-family="Times,serif" font-size="14.00" fill="#000000">LocalStorageService</text>
</g>
<!-- LocalStorageService&#45;&gt;CoreModule -->
<g id="edge2" class="edge">
<title>LocalStorageService&#45;&gt;CoreModule</title>
<path fill="none" stroke="#000000" d="M367.9534,-115.0264C367.9534,-115.0264 367.9534,-140.7791 367.9534,-140.7791"/>
<polygon fill="#000000" stroke="#000000" points="364.4535,-140.779 367.9534,-150.7791 371.4535,-140.7791 364.4535,-140.779"/>
</g>
<!-- NotificationService -->
<g id="node3" class="node">
<title>NotificationService</title>
<ellipse fill="#fdb462" stroke="#000000" cx="245" cy="-104" rx="86.8107" ry="18"/>
<text text-anchor="middle" x="245" y="-99.8" font-family="Times,serif" font-size="14.00" fill="#000000">NotificationService</text>
</g>
<!-- NotificationService&#45;&gt;CoreModule -->
<g id="edge3" class="edge">
<title>NotificationService&#45;&gt;CoreModule</title>
<path fill="none" stroke="#000000" d="M315.6372,-114.4434C315.6372,-114.4434 315.6372,-140.9681 315.6372,-140.9681"/>
<polygon fill="#000000" stroke="#000000" points="312.1373,-140.968 315.6372,-150.9681 319.1373,-140.9681 312.1373,-140.968"/>
</g>
<!-- TitleService -->
<g id="node4" class="node">
<title>TitleService</title>
<ellipse fill="#fdb462" stroke="#000000" cx="82" cy="-104" rx="58.459" ry="18"/>
<text text-anchor="middle" x="82" y="-99.8" font-family="Times,serif" font-size="14.00" fill="#000000">TitleService</text>
</g>
<!-- TitleService&#45;&gt;CoreModule -->
<g id="edge4" class="edge">
<title>TitleService&#45;&gt;CoreModule</title>
<path fill="none" stroke="#000000" d="M82,-122.1061C82,-141.3391 82,-169 82,-169 82,-169 289.6082,-169 289.6082,-169"/>
<polygon fill="#000000" stroke="#000000" points="289.6082,-172.5001 299.6082,-169 289.6081,-165.5001 289.6082,-172.5001"/>
</g>
</g>
</svg>
