<?xml version="1.0" encoding="UTF-8" standalone="no"?>
<!DOCTYPE svg PUBLIC "-//W3C//DTD SVG 1.1//EN"
 "http://www.w3.org/Graphics/SVG/1.1/DTD/svg11.dtd">
<!-- Generated by graphviz version 2.40.1 (20161225.0304)
 -->
<!-- Title: dependencies Pages: 1 -->
<svg width="504pt" height="284pt"
 viewBox="0.00 0.00 504.00 284.00" xmlns="http://www.w3.org/2000/svg" xmlns:xlink="http://www.w3.org/1999/xlink">
<g id="graph0" class="graph" transform="scale(1 1) rotate(0) translate(4 280)">
<title>dependencies</title>
<polygon fill="#ffffff" stroke="transparent" points="-4,4 -4,-280 500,-280 500,4 -4,4"/>
<text text-anchor="start" x="227.0091" y="-42.4" font-family="sans-serif" font-weight="bold" font-size="14.00" fill="#000000">Legend</text>
<polygon fill="#ffffb3" stroke="transparent" points="14,-10 14,-30 34,-30 34,-10 14,-10"/>
<text text-anchor="start" x="37.629" y="-15.4" font-family="sans-serif" font-size="14.00" fill="#000000"> &#160;Declarations</text>
<polygon fill="#8dd3c7" stroke="transparent" points="127,-10 127,-30 147,-30 147,-10 127,-10"/>
<text text-anchor="start" x="150.7251" y="-15.4" font-family="sans-serif" font-size="14.00" fill="#000000"> &#160;Module</text>
<polygon fill="#80b1d3" stroke="transparent" points="213,-10 213,-30 233,-30 233,-10 213,-10"/>
<text text-anchor="start" x="236.7812" y="-15.4" font-family="sans-serif" font-size="14.00" fill="#000000"> &#160;Bootstrap</text>
<polygon fill="#fdb462" stroke="transparent" points="310,-10 310,-30 330,-30 330,-10 310,-10"/>
<text text-anchor="start" x="333.6732" y="-15.4" font-family="sans-serif" font-size="14.00" fill="#000000"> &#160;Providers</text>
<polygon fill="#fb8072" stroke="transparent" points="406,-10 406,-30 426,-30 426,-10 406,-10"/>
<text text-anchor="start" x="429.7258" y="-15.4" font-family="sans-serif" font-size="14.00" fill="#000000"> &#160;Exports</text>
<g id="clust1" class="cluster">
<title>cluster_SharedModule</title>
<polygon fill="none" stroke="#000000" stroke-dasharray="1,5" points="69.5,-70 69.5,-268 426.5,-268 426.5,-70 69.5,-70"/>
</g>
<g id="clust2" class="cluster">
<title>cluster_SharedModule_declarations</title>
<polygon fill="none" stroke="#000000" points="80.5,-78 80.5,-130 415.5,-130 415.5,-78 80.5,-78"/>
</g>
<g id="clust6" class="cluster">
<title>cluster_SharedModule_exports</title>
<polygon fill="none" stroke="#000000" points="77.5,-208 77.5,-260 418.5,-260 418.5,-208 77.5,-208"/>
</g>
<!-- BigInputActionComponent -->
<g id="node1" class="node">
<title>BigInputActionComponent</title>
<polygon fill="#ffffb3" stroke="#000000" points="407.2133,-122 237.7867,-122 237.7867,-86 407.2133,-86 407.2133,-122"/>
<text text-anchor="middle" x="322.5" y="-99.8" font-family="Times,serif" font-size="14.00" fill="#000000">BigInputActionComponent</text>
</g>
<!-- SharedModule -->
<g id="node3" class="node">
<title>SharedModule</title>
<polygon fill="#8dd3c7" stroke="#000000" points="203.9231,-187 200.9231,-191 179.9231,-191 176.9231,-187 105.0769,-187 105.0769,-151 203.9231,-151 203.9231,-187"/>
<text text-anchor="middle" x="154.5" y="-164.8" font-family="Times,serif" font-size="14.00" fill="#000000">SharedModule</text>
</g>
<!-- BigInputActionComponent&#45;&gt;SharedModule -->
<g id="edge1" class="edge">
<title>BigInputActionComponent&#45;&gt;SharedModule</title>
<path fill="none" stroke="#000000" d="M350.7855,-122.0225C350.7855,-139.3734 350.7855,-163 350.7855,-163 350.7855,-163 213.7778,-163 213.7778,-163"/>
<polygon fill="#000000" stroke="#000000" points="213.7778,-159.5001 203.7778,-163 213.7777,-166.5001 213.7778,-159.5001"/>
</g>
<!-- BigInputComponent -->
<g id="node2" class="node">
<title>BigInputComponent</title>
<polygon fill="#ffffb3" stroke="#000000" points="220.1108,-122 88.8892,-122 88.8892,-86 220.1108,-86 220.1108,-122"/>
<text text-anchor="middle" x="154.5" y="-99.8" font-family="Times,serif" font-size="14.00" fill="#000000">BigInputComponent</text>
</g>
<!-- BigInputComponent&#45;&gt;SharedModule -->
<g id="edge2" class="edge">
<title>BigInputComponent&#45;&gt;SharedModule</title>
<path fill="none" stroke="#000000" d="M154.5,-122.1061C154.5,-122.1061 154.5,-140.991 154.5,-140.991"/>
<polygon fill="#000000" stroke="#000000" points="151.0001,-140.9909 154.5,-150.991 158.0001,-140.991 151.0001,-140.9909"/>
</g>
<!-- BigInputActionComponent  -->
<g id="node4" class="node">
<title>BigInputActionComponent </title>
<polygon fill="#fb8072" stroke="#000000" points="410.7134,-252 238.2866,-252 238.2866,-216 410.7134,-216 410.7134,-252"/>
<text text-anchor="middle" x="324.5" y="-229.8" font-family="Times,serif" font-size="14.00" fill="#000000">BigInputActionComponent </text>
</g>
<!-- SharedModule&#45;&gt;BigInputActionComponent  -->
<g id="edge3" class="edge">
<title>SharedModule&#45;&gt;BigInputActionComponent </title>
<path fill="none" stroke="#000000" stroke-dasharray="5,2" d="M203.8462,-175C244.1428,-175 294.4645,-175 294.4645,-175 294.4645,-175 294.4645,-205.9775 294.4645,-205.9775"/>
<polygon fill="#000000" stroke="#000000" points="290.9646,-205.9774 294.4645,-215.9775 297.9646,-205.9775 290.9646,-205.9774"/>
</g>
<!-- BigInputComponent  -->
<g id="node5" class="node">
<title>BigInputComponent </title>
<polygon fill="#fb8072" stroke="#000000" points="219.6114,-252 85.3886,-252 85.3886,-216 219.6114,-216 219.6114,-252"/>
<text text-anchor="middle" x="152.5" y="-229.8" font-family="Times,serif" font-size="14.00" fill="#000000">BigInputComponent </text>
</g>
<!-- SharedModule&#45;&gt;BigInputComponent  -->
<g id="edge4" class="edge">
<title>SharedModule&#45;&gt;BigInputComponent </title>
<path fill="none" stroke="#000000" stroke-dasharray="5,2" d="M154.5,-187.1061C154.5,-187.1061 154.5,-205.991 154.5,-205.991"/>
<polygon fill="#000000" stroke="#000000" points="151.0001,-205.9909 154.5,-215.991 158.0001,-205.991 151.0001,-205.9909"/>
</g>
</g>
</svg>
