<?xml version="1.0" encoding="UTF-8" standalone="no"?>
<!DOCTYPE svg PUBLIC "-//W3C//DTD SVG 1.1//EN"
 "http://www.w3.org/Graphics/SVG/1.1/DTD/svg11.dtd">
<!-- Generated by graphviz version 2.40.1 (20161225.0304)
 -->
<!-- Title: dependencies Pages: 1 -->
<svg width="1986pt" height="211pt"
 viewBox="0.00 0.00 1986.00 211.00" xmlns="http://www.w3.org/2000/svg" xmlns:xlink="http://www.w3.org/1999/xlink">
<g id="graph0" class="graph" transform="scale(1 1) rotate(0) translate(4 207)">
<title>dependencies</title>
<polygon fill="#ffffff" stroke="transparent" points="-4,4 -4,-207 1982,-207 1982,4 -4,4"/>
<text text-anchor="start" x="968.0091" y="-42.4" font-family="sans-serif" font-weight="bold" font-size="14.00" fill="#000000">Legend</text>
<polygon fill="#ffffb3" stroke="transparent" points="755,-10 755,-30 775,-30 775,-10 755,-10"/>
<text text-anchor="start" x="778.629" y="-15.4" font-family="sans-serif" font-size="14.00" fill="#000000"> &#160;Declarations</text>
<polygon fill="#8dd3c7" stroke="transparent" points="868,-10 868,-30 888,-30 888,-10 868,-10"/>
<text text-anchor="start" x="891.7251" y="-15.4" font-family="sans-serif" font-size="14.00" fill="#000000"> &#160;Module</text>
<polygon fill="#80b1d3" stroke="transparent" points="954,-10 954,-30 974,-30 974,-10 954,-10"/>
<text text-anchor="start" x="977.7812" y="-15.4" font-family="sans-serif" font-size="14.00" fill="#000000"> &#160;Bootstrap</text>
<polygon fill="#fdb462" stroke="transparent" points="1051,-10 1051,-30 1071,-30 1071,-10 1051,-10"/>
<text text-anchor="start" x="1074.6732" y="-15.4" font-family="sans-serif" font-size="14.00" fill="#000000"> &#160;Providers</text>
<polygon fill="#fb8072" stroke="transparent" points="1147,-10 1147,-30 1167,-30 1167,-10 1147,-10"/>
<text text-anchor="start" x="1170.7258" y="-15.4" font-family="sans-serif" font-size="14.00" fill="#000000"> &#160;Exports</text>
<g id="clust1" class="cluster">
<title>cluster_ExamplesModule</title>
<polygon fill="none" stroke="#000000" stroke-dasharray="1,5" points="8,-70 8,-195 1970,-195 1970,-70 8,-70"/>
</g>
<g id="clust2" class="cluster">
<title>cluster_ExamplesModule_declarations</title>
<polygon fill="none" stroke="#000000" points="520,-78 520,-130 1962,-130 1962,-78 520,-78"/>
</g>
<g id="clust12" class="cluster">
<title>cluster_ExamplesModule_imports</title>
<polygon fill="none" stroke="#000000" points="220,-78 220,-130 512,-130 512,-78 220,-78"/>
</g>
<g id="clust15" class="cluster">
<title>cluster_ExamplesModule_providers</title>
<polygon fill="none" stroke="#000000" points="16,-78 16,-130 212,-130 212,-78 16,-78"/>
</g>
<!-- AuthenticatedComponent -->
<g id="node1" class="node">
<title>AuthenticatedComponent</title>
<polygon fill="#ffffb3" stroke="#000000" points="1953.8599,-122 1794.1401,-122 1794.1401,-86 1953.8599,-86 1953.8599,-122"/>
<text text-anchor="middle" x="1874" y="-99.8" font-family="Times,serif" font-size="14.00" fill="#000000">AuthenticatedComponent</text>
</g>
<!-- ExamplesModule -->
<g id="node10" class="node">
<title>ExamplesModule</title>
<polygon fill="#8dd3c7" stroke="#000000" points="1137.2577,-187 1134.2577,-191 1113.2577,-191 1110.2577,-187 1022.7423,-187 1022.7423,-151 1137.2577,-151 1137.2577,-187"/>
<text text-anchor="middle" x="1080" y="-164.8" font-family="Times,serif" font-size="14.00" fill="#000000">ExamplesModule</text>
</g>
<!-- AuthenticatedComponent&#45;&gt;ExamplesModule -->
<g id="edge1" class="edge">
<title>AuthenticatedComponent&#45;&gt;ExamplesModule</title>
<path fill="none" stroke="#000000" d="M1874,-122.0908C1874,-145.1328 1874,-182 1874,-182 1874,-182 1147.4219,-182 1147.4219,-182"/>
<polygon fill="#000000" stroke="#000000" points="1147.422,-178.5001 1137.4219,-182 1147.4219,-185.5001 1147.422,-178.5001"/>
</g>
<!-- ChildComponent -->
<g id="node2" class="node">
<title>ChildComponent</title>
<polygon fill="#ffffb3" stroke="#000000" points="1776.4511,-122 1663.5489,-122 1663.5489,-86 1776.4511,-86 1776.4511,-122"/>
<text text-anchor="middle" x="1720" y="-99.8" font-family="Times,serif" font-size="14.00" fill="#000000">ChildComponent</text>
</g>
<!-- ChildComponent&#45;&gt;ExamplesModule -->
<g id="edge2" class="edge">
<title>ChildComponent&#45;&gt;ExamplesModule</title>
<path fill="none" stroke="#000000" d="M1720,-122.2843C1720,-143.3211 1720,-175 1720,-175 1720,-175 1147.359,-175 1147.359,-175"/>
<polygon fill="#000000" stroke="#000000" points="1147.359,-171.5001 1137.359,-175 1147.3589,-178.5001 1147.359,-171.5001"/>
</g>
<!-- CrudComponent -->
<g id="node3" class="node">
<title>CrudComponent</title>
<polygon fill="#ffffb3" stroke="#000000" points="1645.8301,-122 1536.1699,-122 1536.1699,-86 1645.8301,-86 1645.8301,-122"/>
<text text-anchor="middle" x="1591" y="-99.8" font-family="Times,serif" font-size="14.00" fill="#000000">CrudComponent</text>
</g>
<!-- CrudComponent&#45;&gt;ExamplesModule -->
<g id="edge3" class="edge">
<title>CrudComponent&#45;&gt;ExamplesModule</title>
<path fill="none" stroke="#000000" d="M1591,-122.1061C1591,-141.3391 1591,-169 1591,-169 1591,-169 1147.6249,-169 1147.6249,-169"/>
<polygon fill="#000000" stroke="#000000" points="1147.6249,-165.5001 1137.6249,-169 1147.6248,-172.5001 1147.6249,-165.5001"/>
</g>
<!-- ExamplesComponent -->
<g id="node4" class="node">
<title>ExamplesComponent</title>
<polygon fill="#ffffb3" stroke="#000000" points="1518.0408,-122 1381.9592,-122 1381.9592,-86 1518.0408,-86 1518.0408,-122"/>
<text text-anchor="middle" x="1450" y="-99.8" font-family="Times,serif" font-size="14.00" fill="#000000">ExamplesComponent</text>
</g>
<!-- ExamplesComponent&#45;&gt;ExamplesModule -->
<g id="edge4" class="edge">
<title>ExamplesComponent&#45;&gt;ExamplesModule</title>
<path fill="none" stroke="#000000" d="M1450,-122.0225C1450,-139.3734 1450,-163 1450,-163 1450,-163 1147.4065,-163 1147.4065,-163"/>
<polygon fill="#000000" stroke="#000000" points="1147.4066,-159.5001 1137.4065,-163 1147.4065,-166.5001 1147.4066,-159.5001"/>
</g>
<!-- FormComponent -->
<g id="node5" class="node">
<title>FormComponent</title>
<polygon fill="#ffffb3" stroke="#000000" points="1363.6667,-122 1252.3333,-122 1252.3333,-86 1363.6667,-86 1363.6667,-122"/>
<text text-anchor="middle" x="1308" y="-99.8" font-family="Times,serif" font-size="14.00" fill="#000000">FormComponent</text>
</g>
<!-- FormComponent&#45;&gt;ExamplesModule -->
<g id="edge5" class="edge">
<title>FormComponent&#45;&gt;ExamplesModule</title>
<path fill="none" stroke="#000000" d="M1308,-122.2396C1308,-137.5706 1308,-157 1308,-157 1308,-157 1147.534,-157 1147.534,-157"/>
<polygon fill="#000000" stroke="#000000" points="1147.5341,-153.5001 1137.534,-157 1147.534,-160.5001 1147.5341,-153.5001"/>
</g>
<!-- NotificationsComponent -->
<g id="node6" class="node">
<title>NotificationsComponent</title>
<polygon fill="#ffffb3" stroke="#000000" points="1234.427,-122 1079.573,-122 1079.573,-86 1234.427,-86 1234.427,-122"/>
<text text-anchor="middle" x="1157" y="-99.8" font-family="Times,serif" font-size="14.00" fill="#000000">NotificationsComponent</text>
</g>
<!-- NotificationsComponent&#45;&gt;ExamplesModule -->
<g id="edge6" class="edge">
<title>NotificationsComponent&#45;&gt;ExamplesModule</title>
<path fill="none" stroke="#000000" d="M1108.5828,-122.1061C1108.5828,-122.1061 1108.5828,-140.991 1108.5828,-140.991"/>
<polygon fill="#000000" stroke="#000000" points="1105.0828,-140.9909 1108.5828,-150.991 1112.0828,-140.991 1105.0828,-140.9909"/>
</g>
<!-- ParentComponent -->
<g id="node7" class="node">
<title>ParentComponent</title>
<polygon fill="#ffffb3" stroke="#000000" points="1061.5954,-122 944.4046,-122 944.4046,-86 1061.5954,-86 1061.5954,-122"/>
<text text-anchor="middle" x="1003" y="-99.8" font-family="Times,serif" font-size="14.00" fill="#000000">ParentComponent</text>
</g>
<!-- ParentComponent&#45;&gt;ExamplesModule -->
<g id="edge7" class="edge">
<title>ParentComponent&#45;&gt;ExamplesModule</title>
<path fill="none" stroke="#000000" d="M1042.0845,-122.1061C1042.0845,-122.1061 1042.0845,-140.991 1042.0845,-140.991"/>
<polygon fill="#000000" stroke="#000000" points="1038.5846,-140.9909 1042.0845,-150.991 1045.5846,-140.991 1038.5846,-140.9909"/>
</g>
<!-- StockMarketContainerComponent -->
<g id="node8" class="node">
<title>StockMarketContainerComponent</title>
<polygon fill="#ffffb3" stroke="#000000" points="926.3529,-122 717.6471,-122 717.6471,-86 926.3529,-86 926.3529,-122"/>
<text text-anchor="middle" x="822" y="-99.8" font-family="Times,serif" font-size="14.00" fill="#000000">StockMarketContainerComponent</text>
</g>
<!-- StockMarketContainerComponent&#45;&gt;ExamplesModule -->
<g id="edge8" class="edge">
<title>StockMarketContainerComponent&#45;&gt;ExamplesModule</title>
<path fill="none" stroke="#000000" d="M822,-122.2396C822,-137.5706 822,-157 822,-157 822,-157 1012.7414,-157 1012.7414,-157"/>
<polygon fill="#000000" stroke="#000000" points="1012.7415,-160.5001 1022.7414,-157 1012.7414,-153.5001 1012.7415,-160.5001"/>
</g>
<!-- TodosContainerComponent -->
<g id="node9" class="node">
<title>TodosContainerComponent</title>
<polygon fill="#ffffb3" stroke="#000000" points="699.5378,-122 528.4622,-122 528.4622,-86 699.5378,-86 699.5378,-122"/>
<text text-anchor="middle" x="614" y="-99.8" font-family="Times,serif" font-size="14.00" fill="#000000">TodosContainerComponent</text>
</g>
<!-- TodosContainerComponent&#45;&gt;ExamplesModule -->
<g id="edge9" class="edge">
<title>TodosContainerComponent&#45;&gt;ExamplesModule</title>
<path fill="none" stroke="#000000" d="M614,-122.0225C614,-139.3734 614,-163 614,-163 614,-163 1012.3919,-163 1012.3919,-163"/>
<polygon fill="#000000" stroke="#000000" points="1012.3919,-166.5001 1022.3919,-163 1012.3918,-159.5001 1012.3919,-166.5001"/>
</g>
<!-- ExamplesRoutingModule -->
<g id="node11" class="node">
<title>ExamplesRoutingModule</title>
<polygon fill="#8dd3c7" stroke="#000000" points="503.8752,-122 500.8752,-126 479.8752,-126 476.8752,-122 344.1248,-122 344.1248,-86 503.8752,-86 503.8752,-122"/>
<text text-anchor="middle" x="424" y="-99.8" font-family="Times,serif" font-size="14.00" fill="#000000">ExamplesRoutingModule</text>
</g>
<!-- ExamplesRoutingModule&#45;&gt;ExamplesModule -->
<g id="edge10" class="edge">
<title>ExamplesRoutingModule&#45;&gt;ExamplesModule</title>
<path fill="none" stroke="#000000" d="M424,-122.1061C424,-141.3391 424,-169 424,-169 424,-169 1012.6459,-169 1012.6459,-169"/>
<polygon fill="#000000" stroke="#000000" points="1012.6459,-172.5001 1022.6459,-169 1012.6459,-165.5001 1012.6459,-172.5001"/>
</g>
<!-- SharedModule -->
<g id="node12" class="node">
<title>SharedModule</title>
<polygon fill="#8dd3c7" stroke="#000000" points="326.4231,-122 323.4231,-126 302.4231,-126 299.4231,-122 227.5769,-122 227.5769,-86 326.4231,-86 326.4231,-122"/>
<text text-anchor="middle" x="277" y="-99.8" font-family="Times,serif" font-size="14.00" fill="#000000">SharedModule</text>
</g>
<!-- SharedModule&#45;&gt;ExamplesModule -->
<g id="edge11" class="edge">
<title>SharedModule&#45;&gt;ExamplesModule</title>
<path fill="none" stroke="#000000" d="M277,-122.2843C277,-143.3211 277,-175 277,-175 277,-175 1012.5725,-175 1012.5725,-175"/>
<polygon fill="#000000" stroke="#000000" points="1012.5725,-178.5001 1022.5725,-175 1012.5724,-171.5001 1012.5725,-178.5001"/>
</g>
<!-- StockMarketService -->
<g id="node13" class="node">
<title>StockMarketService</title>
<ellipse fill="#fdb462" stroke="#000000" cx="114" cy="-104" rx="89.7441" ry="18"/>
<text text-anchor="middle" x="114" y="-99.8" font-family="Times,serif" font-size="14.00" fill="#000000">StockMarketService</text>
</g>
<!-- StockMarketService&#45;&gt;ExamplesModule -->
<g id="edge12" class="edge">
<title>StockMarketService&#45;&gt;ExamplesModule</title>
<path fill="none" stroke="#000000" d="M114,-122.0908C114,-145.1328 114,-182 114,-182 114,-182 1012.4652,-182 1012.4652,-182"/>
<polygon fill="#000000" stroke="#000000" points="1012.4652,-185.5001 1022.4652,-182 1012.4652,-178.5001 1012.4652,-185.5001"/>
</g>
</g>
</svg>
