<?xml version="1.0" encoding="UTF-8" standalone="no"?>
<!DOCTYPE svg PUBLIC "-//W3C//DTD SVG 1.1//EN"
 "http://www.w3.org/Graphics/SVG/1.1/DTD/svg11.dtd">
<!-- Generated by graphviz version 2.40.1 (20161225.0304)
 -->
<!-- Title: dependencies Pages: 1 -->
<svg width="769pt" height="284pt"
 viewBox="0.00 0.00 769.00 284.00" xmlns="http://www.w3.org/2000/svg" xmlns:xlink="http://www.w3.org/1999/xlink">
<g id="graph0" class="graph" transform="scale(1 1) rotate(0) translate(4 280)">
<title>dependencies</title>
<polygon fill="#ffffff" stroke="transparent" points="-4,4 -4,-280 765,-280 765,4 -4,4"/>
<text text-anchor="start" x="359.5091" y="-42.4" font-family="sans-serif" font-weight="bold" font-size="14.00" fill="#000000">Legend</text>
<polygon fill="#ffffb3" stroke="transparent" points="146.5,-10 146.5,-30 166.5,-30 166.5,-10 146.5,-10"/>
<text text-anchor="start" x="170.129" y="-15.4" font-family="sans-serif" font-size="14.00" fill="#000000"> &#160;Declarations</text>
<polygon fill="#8dd3c7" stroke="transparent" points="259.5,-10 259.5,-30 279.5,-30 279.5,-10 259.5,-10"/>
<text text-anchor="start" x="283.2251" y="-15.4" font-family="sans-serif" font-size="14.00" fill="#000000"> &#160;Module</text>
<polygon fill="#80b1d3" stroke="transparent" points="345.5,-10 345.5,-30 365.5,-30 365.5,-10 345.5,-10"/>
<text text-anchor="start" x="369.2812" y="-15.4" font-family="sans-serif" font-size="14.00" fill="#000000"> &#160;Bootstrap</text>
<polygon fill="#fdb462" stroke="transparent" points="442.5,-10 442.5,-30 462.5,-30 462.5,-10 442.5,-10"/>
<text text-anchor="start" x="466.1732" y="-15.4" font-family="sans-serif" font-size="14.00" fill="#000000"> &#160;Providers</text>
<polygon fill="#fb8072" stroke="transparent" points="538.5,-10 538.5,-30 558.5,-30 558.5,-10 538.5,-10"/>
<text text-anchor="start" x="562.2258" y="-15.4" font-family="sans-serif" font-size="14.00" fill="#000000"> &#160;Exports</text>
<g id="clust1" class="cluster">
<title>cluster_AppModule</title>
<polygon fill="none" stroke="#000000" stroke-dasharray="1,5" points="8,-70 8,-268 753,-268 753,-70 8,-70"/>
</g>
<g id="clust2" class="cluster">
<title>cluster_AppModule_declarations</title>
<polygon fill="none" stroke="#000000" points="623,-78 623,-130 745,-130 745,-78 623,-78"/>
</g>
<g id="clust4" class="cluster">
<title>cluster_AppModule_imports</title>
<polygon fill="none" stroke="#000000" points="16,-78 16,-130 615,-130 615,-78 16,-78"/>
</g>
<g id="clust6" class="cluster">
<title>cluster_AppModule_bootstrap</title>
<polygon fill="none" stroke="#000000" points="298,-208 298,-260 422,-260 422,-208 298,-208"/>
</g>
<!-- AppComponent -->
<g id="node1" class="node">
<title>AppComponent</title>
<polygon fill="#ffffb3" stroke="#000000" points="736.9399,-122 631.0601,-122 631.0601,-86 736.9399,-86 736.9399,-122"/>
<text text-anchor="middle" x="684" y="-99.8" font-family="Times,serif" font-size="14.00" fill="#000000">AppComponent</text>
</g>
<!-- AppModule -->
<g id="node2" class="node">
<title>AppModule</title>
<polygon fill="#8dd3c7" stroke="#000000" points="401.6571,-187 398.6571,-191 377.6571,-191 374.6571,-187 318.3429,-187 318.3429,-151 401.6571,-151 401.6571,-187"/>
<text text-anchor="middle" x="360" y="-164.8" font-family="Times,serif" font-size="14.00" fill="#000000">AppModule</text>
</g>
<!-- AppComponent&#45;&gt;AppModule -->
<g id="edge1" class="edge">
<title>AppComponent&#45;&gt;AppModule</title>
<path fill="none" stroke="#000000" d="M684,-122.2843C684,-143.3211 684,-175 684,-175 684,-175 411.694,-175 411.694,-175"/>
<polygon fill="#000000" stroke="#000000" points="411.6941,-171.5001 401.694,-175 411.694,-178.5001 411.6941,-171.5001"/>
</g>
<!-- AppComponent  -->
<g id="node8" class="node">
<title>AppComponent </title>
<polygon fill="#80b1d3" stroke="#000000" points="414.439,-252 305.561,-252 305.561,-216 414.439,-216 414.439,-252"/>
<text text-anchor="middle" x="360" y="-229.8" font-family="Times,serif" font-size="14.00" fill="#000000">AppComponent </text>
</g>
<!-- AppModule&#45;&gt;AppComponent  -->
<g id="edge7" class="edge">
<title>AppModule&#45;&gt;AppComponent </title>
<path fill="none" stroke="#000000" stroke-dasharray="1,5" d="M360,-187.1061C360,-187.1061 360,-205.991 360,-205.991"/>
<polygon fill="#000000" stroke="#000000" points="356.5001,-205.9909 360,-215.991 363.5001,-205.991 356.5001,-205.9909"/>
</g>
<!-- AppRoutingModule -->
<g id="node3" class="node">
<title>AppRoutingModule</title>
<polygon fill="#8dd3c7" stroke="#000000" points="607.2744,-122 604.2744,-126 583.2744,-126 580.2744,-122 478.7256,-122 478.7256,-86 607.2744,-86 607.2744,-122"/>
<text text-anchor="middle" x="543" y="-99.8" font-family="Times,serif" font-size="14.00" fill="#000000">AppRoutingModule</text>
</g>
<!-- AppRoutingModule&#45;&gt;AppModule -->
<g id="edge2" class="edge">
<title>AppRoutingModule&#45;&gt;AppModule</title>
<path fill="none" stroke="#000000" d="M543,-122.0225C543,-139.3734 543,-163 543,-163 543,-163 411.9839,-163 411.9839,-163"/>
<polygon fill="#000000" stroke="#000000" points="411.9839,-159.5001 401.9839,-163 411.9839,-166.5001 411.9839,-159.5001"/>
</g>
<!-- CoreModule -->
<g id="node4" class="node">
<title>CoreModule</title>
<polygon fill="#8dd3c7" stroke="#000000" points="460.2619,-122 457.2619,-126 436.2619,-126 433.2619,-122 373.7381,-122 373.7381,-86 460.2619,-86 460.2619,-122"/>
<text text-anchor="middle" x="417" y="-99.8" font-family="Times,serif" font-size="14.00" fill="#000000">CoreModule</text>
</g>
<!-- CoreModule&#45;&gt;AppModule -->
<g id="edge3" class="edge">
<title>CoreModule&#45;&gt;AppModule</title>
<path fill="none" stroke="#000000" d="M387.7237,-122.1061C387.7237,-122.1061 387.7237,-140.991 387.7237,-140.991"/>
<polygon fill="#000000" stroke="#000000" points="384.2238,-140.9909 387.7237,-150.991 391.2238,-140.991 384.2238,-140.9909"/>
</g>
<!-- SettingsModule -->
<g id="node5" class="node">
<title>SettingsModule</title>
<polygon fill="#8dd3c7" stroke="#000000" points="355.1639,-122 352.1639,-126 331.1639,-126 328.1639,-122 250.8361,-122 250.8361,-86 355.1639,-86 355.1639,-122"/>
<text text-anchor="middle" x="303" y="-99.8" font-family="Times,serif" font-size="14.00" fill="#000000">SettingsModule</text>
</g>
<!-- SettingsModule&#45;&gt;AppModule -->
<g id="edge4" class="edge">
<title>SettingsModule&#45;&gt;AppModule</title>
<path fill="none" stroke="#000000" d="M336.7518,-122.1061C336.7518,-122.1061 336.7518,-140.991 336.7518,-140.991"/>
<polygon fill="#000000" stroke="#000000" points="333.2518,-140.9909 336.7518,-150.991 340.2518,-140.991 333.2518,-140.9909"/>
</g>
<!-- SharedModule -->
<g id="node6" class="node">
<title>SharedModule</title>
<polygon fill="#8dd3c7" stroke="#000000" points="232.4231,-122 229.4231,-126 208.4231,-126 205.4231,-122 133.5769,-122 133.5769,-86 232.4231,-86 232.4231,-122"/>
<text text-anchor="middle" x="183" y="-99.8" font-family="Times,serif" font-size="14.00" fill="#000000">SharedModule</text>
</g>
<!-- SharedModule&#45;&gt;AppModule -->
<g id="edge5" class="edge">
<title>SharedModule&#45;&gt;AppModule</title>
<path fill="none" stroke="#000000" d="M183,-122.0225C183,-139.3734 183,-163 183,-163 183,-163 308.0535,-163 308.0535,-163"/>
<polygon fill="#000000" stroke="#000000" points="308.0535,-166.5001 318.0535,-163 308.0534,-159.5001 308.0535,-166.5001"/>
</g>
<!-- StaticModule -->
<g id="node7" class="node">
<title>StaticModule</title>
<polygon fill="#8dd3c7" stroke="#000000" points="115.9344,-122 112.9344,-126 91.9344,-126 88.9344,-122 24.0656,-122 24.0656,-86 115.9344,-86 115.9344,-122"/>
<text text-anchor="middle" x="70" y="-99.8" font-family="Times,serif" font-size="14.00" fill="#000000">StaticModule</text>
</g>
<!-- StaticModule&#45;&gt;AppModule -->
<g id="edge6" class="edge">
<title>StaticModule&#45;&gt;AppModule</title>
<path fill="none" stroke="#000000" d="M70,-122.2843C70,-143.3211 70,-175 70,-175 70,-175 308.1412,-175 308.1412,-175"/>
<polygon fill="#000000" stroke="#000000" points="308.1413,-178.5001 318.1412,-175 308.1412,-171.5001 308.1413,-178.5001"/>
</g>
</g>
</svg>
