<?xml version="1.0" encoding="UTF-8" standalone="no"?>
<!DOCTYPE svg PUBLIC "-//W3C//DTD SVG 1.1//EN"
 "http://www.w3.org/Graphics/SVG/1.1/DTD/svg11.dtd">
<!-- Generated by graphviz version 2.40.1 (20161225.0304)
 -->
<!-- Title: dependencies Pages: 1 -->
<svg width="595pt" height="211pt"
 viewBox="0.00 0.00 595.00 211.00" xmlns="http://www.w3.org/2000/svg" xmlns:xlink="http://www.w3.org/1999/xlink">
<g id="graph0" class="graph" transform="scale(1 1) rotate(0) translate(4 207)">
<title>dependencies</title>
<polygon fill="#ffffff" stroke="transparent" points="-4,4 -4,-207 591,-207 591,4 -4,4"/>
<text text-anchor="start" x="272.5091" y="-42.4" font-family="sans-serif" font-weight="bold" font-size="14.00" fill="#000000">Legend</text>
<polygon fill="#ffffb3" stroke="transparent" points="59.5,-10 59.5,-30 79.5,-30 79.5,-10 59.5,-10"/>
<text text-anchor="start" x="83.129" y="-15.4" font-family="sans-serif" font-size="14.00" fill="#000000"> &#160;Declarations</text>
<polygon fill="#8dd3c7" stroke="transparent" points="172.5,-10 172.5,-30 192.5,-30 192.5,-10 172.5,-10"/>
<text text-anchor="start" x="196.2251" y="-15.4" font-family="sans-serif" font-size="14.00" fill="#000000"> &#160;Module</text>
<polygon fill="#80b1d3" stroke="transparent" points="258.5,-10 258.5,-30 278.5,-30 278.5,-10 258.5,-10"/>
<text text-anchor="start" x="282.2812" y="-15.4" font-family="sans-serif" font-size="14.00" fill="#000000"> &#160;Bootstrap</text>
<polygon fill="#fdb462" stroke="transparent" points="355.5,-10 355.5,-30 375.5,-30 375.5,-10 355.5,-10"/>
<text text-anchor="start" x="379.1732" y="-15.4" font-family="sans-serif" font-size="14.00" fill="#000000"> &#160;Providers</text>
<polygon fill="#fb8072" stroke="transparent" points="451.5,-10 451.5,-30 471.5,-30 471.5,-10 451.5,-10"/>
<text text-anchor="start" x="475.2258" y="-15.4" font-family="sans-serif" font-size="14.00" fill="#000000"> &#160;Exports</text>
<g id="clust1" class="cluster">
<title>cluster_StaticModule</title>
<polygon fill="none" stroke="#000000" stroke-dasharray="1,5" points="8,-70 8,-195 579,-195 579,-70 8,-70"/>
</g>
<g id="clust2" class="cluster">
<title>cluster_StaticModule_declarations</title>
<polygon fill="none" stroke="#000000" points="292,-78 292,-130 571,-130 571,-78 292,-78"/>
</g>
<g id="clust5" class="cluster">
<title>cluster_StaticModule_imports</title>
<polygon fill="none" stroke="#000000" points="16,-78 16,-130 284,-130 284,-78 16,-78"/>
</g>
<!-- AboutComponent -->
<g id="node1" class="node">
<title>AboutComponent</title>
<polygon fill="#ffffb3" stroke="#000000" points="563.3301,-122 446.6699,-122 446.6699,-86 563.3301,-86 563.3301,-122"/>
<text text-anchor="middle" x="505" y="-99.8" font-family="Times,serif" font-size="14.00" fill="#000000">AboutComponent</text>
</g>
<!-- StaticModule -->
<g id="node3" class="node">
<title>StaticModule</title>
<polygon fill="#8dd3c7" stroke="#000000" points="340.9344,-187 337.9344,-191 316.9344,-191 313.9344,-187 249.0656,-187 249.0656,-151 340.9344,-151 340.9344,-187"/>
<text text-anchor="middle" x="295" y="-164.8" font-family="Times,serif" font-size="14.00" fill="#000000">StaticModule</text>
</g>
<!-- AboutComponent&#45;&gt;StaticModule -->
<g id="edge1" class="edge">
<title>AboutComponent&#45;&gt;StaticModule</title>
<path fill="none" stroke="#000000" d="M505,-122.1061C505,-141.3391 505,-169 505,-169 505,-169 350.8259,-169 350.8259,-169"/>
<polygon fill="#000000" stroke="#000000" points="350.8259,-165.5001 340.8259,-169 350.8259,-172.5001 350.8259,-165.5001"/>
</g>
<!-- FeaturesComponent -->
<g id="node2" class="node">
<title>FeaturesComponent</title>
<polygon fill="#ffffb3" stroke="#000000" points="428.2548,-122 299.7452,-122 299.7452,-86 428.2548,-86 428.2548,-122"/>
<text text-anchor="middle" x="364" y="-99.8" font-family="Times,serif" font-size="14.00" fill="#000000">FeaturesComponent</text>
</g>
<!-- FeaturesComponent&#45;&gt;StaticModule -->
<g id="edge2" class="edge">
<title>FeaturesComponent&#45;&gt;StaticModule</title>
<path fill="none" stroke="#000000" d="M320.1697,-122.1061C320.1697,-122.1061 320.1697,-140.991 320.1697,-140.991"/>
<polygon fill="#000000" stroke="#000000" points="316.6698,-140.9909 320.1697,-150.991 323.6698,-140.991 316.6698,-140.9909"/>
</g>
<!-- SharedModule -->
<g id="node4" class="node">
<title>SharedModule</title>
<polygon fill="#8dd3c7" stroke="#000000" points="276.4231,-122 273.4231,-126 252.4231,-126 249.4231,-122 177.5769,-122 177.5769,-86 276.4231,-86 276.4231,-122"/>
<text text-anchor="middle" x="227" y="-99.8" font-family="Times,serif" font-size="14.00" fill="#000000">SharedModule</text>
</g>
<!-- SharedModule&#45;&gt;StaticModule -->
<g id="edge3" class="edge">
<title>SharedModule&#45;&gt;StaticModule</title>
<path fill="none" stroke="#000000" d="M262.7472,-122.1061C262.7472,-122.1061 262.7472,-140.991 262.7472,-140.991"/>
<polygon fill="#000000" stroke="#000000" points="259.2473,-140.9909 262.7472,-150.991 266.2473,-140.991 259.2473,-140.9909"/>
</g>
<!-- StaticRoutingModule -->
<g id="node5" class="node">
<title>StaticRoutingModule</title>
<polygon fill="#8dd3c7" stroke="#000000" points="160.0519,-122 157.0519,-126 136.0519,-126 133.0519,-122 23.9481,-122 23.9481,-86 160.0519,-86 160.0519,-122"/>
<text text-anchor="middle" x="92" y="-99.8" font-family="Times,serif" font-size="14.00" fill="#000000">StaticRoutingModule</text>
</g>
<!-- StaticRoutingModule&#45;&gt;StaticModule -->
<g id="edge4" class="edge">
<title>StaticRoutingModule&#45;&gt;StaticModule</title>
<path fill="none" stroke="#000000" d="M92,-122.1061C92,-141.3391 92,-169 92,-169 92,-169 239.1897,-169 239.1897,-169"/>
<polygon fill="#000000" stroke="#000000" points="239.1898,-172.5001 249.1897,-169 239.1897,-165.5001 239.1898,-172.5001"/>
</g>
</g>
</svg>
